<svg width="24" height="24" viewBox="0 0 24 24" fill="#D9380C" xmlns="http://www.w3.org/2000/svg">
                        <path d="M21.9599 9.30499C21.9217 9.21462 21.8576 9.13751 21.7758 9.08327C21.694 9.02904 21.5981 9.00007 21.4999 8.99999H18.1149L20.3499 3.17999C20.3794 3.10388 20.3898 3.02171 20.3802 2.94066C20.3707 2.8596 20.3414 2.78212 20.2949 2.71499C20.249 2.64876 20.1877 2.59462 20.1163 2.55718C20.0449 2.51975 19.9656 2.50013 19.8849 2.49999H13.3349C13.2259 2.4943 13.118 2.52446 13.0277 2.58585C12.9374 2.64724 12.8697 2.7365 12.8349 2.83999L11.6399 6.49999H13.4999C13.6326 6.49999 13.7597 6.55267 13.8535 6.64644C13.9473 6.74021 13.9999 6.86738 13.9999 6.99999C13.9999 7.1326 13.9473 7.25978 13.8535 7.35355C13.7597 7.44731 13.6326 7.49999 13.4999 7.49999H11.3049L10.1349 11L9.80494 12L9.68994 12.34C9.66515 12.4152 9.65857 12.4952 9.67074 12.5734C9.68291 12.6517 9.71348 12.7259 9.75994 12.79C9.80595 12.8546 9.86668 12.9074 9.9371 12.9439C10.0075 12.9804 10.0856 12.9996 10.1649 13H12.7699L11.8099 15.5L11.4249 16.5L9.76494 20.82C9.73576 20.8956 9.7254 20.9772 9.73477 21.0577C9.74413 21.1383 9.77293 21.2153 9.81869 21.2822C9.86445 21.3491 9.9258 21.4039 9.99744 21.4419C10.0691 21.4798 10.1489 21.4998 10.2299 21.5C10.2969 21.5004 10.3633 21.4873 10.4252 21.4615C10.487 21.4358 10.543 21.3978 10.5899 21.35L21.8549 9.84999C21.9243 9.77968 21.9713 9.69039 21.99 9.5934C22.0087 9.49641 21.9982 9.39605 21.9599 9.30499Z" fill="#D9380C"></path>
                        <path d="M6.5 6.5C6.36739 6.5 6.24021 6.55268 6.14645 6.64645C6.05268 6.74021 6 6.86739 6 7C6 7.13261 6.05268 7.25979 6.14645 7.35355C6.24021 7.44732 6.36739 7.5 6.5 7.5H11.305L11.64 6.5H6.5Z" fill="#D9380C"></path>
                        <path d="M9.085 11H2.5C2.36739 11 2.24021 11.0527 2.14645 11.1464C2.05268 11.2402 2 11.3674 2 11.5C2 11.6326 2.05268 11.7598 2.14645 11.8536C2.24021 11.9473 2.36739 12 2.5 12H8.755L9.085 11Z" fill="#D9380C"></path>
                        <path d="M10.74 15.5H4.5C4.36739 15.5 4.24021 15.5527 4.14645 15.6464C4.05268 15.7402 4 15.8674 4 16C4 16.1326 4.05268 16.2598 4.14645 16.3536C4.24021 16.4473 4.36739 16.5 4.5 16.5H10.355L10.74 15.5Z" fill="#D9380C"></path>
                      </svg>