<svg width="36" height="36" viewBox="0 0 36 36" fill="none" xmlns="http://www.w3.org/2000/svg">
                  <g clip-path="url(#clip0_2_16564)">
                    <path d="M25.3078 36C12.7969 35.8547 -2.8715 19.7858 0.494698 7.13415C1.1766 3.4251 7.75236 -2.97371 12.028 1.56907C13.728 3.37006 15.9173 4.77259 15.861 7.55756C15.8733 9.31447 15.0341 10.6729 13.7634 11.8106C12.3245 13.2496 12.1914 15.5383 13.4537 17.1344C15.008 19.1014 16.8673 20.9605 18.8346 22.5153C20.4307 23.7776 22.7193 23.6445 24.1583 22.2055L24.7407 21.6232C25.7177 20.6462 27.0214 20.108 28.4115 20.108C31.1931 20.0499 32.6042 22.2452 34.4001 23.941C38.936 28.2551 32.5599 34.7675 28.835 35.4743C27.7484 35.8253 26.5656 36 25.3078 36ZM8.4829 1.5458C5.88972 1.44401 2.43122 5.2076 2.01287 7.43334C-0.711913 17.8052 10.135 29.7394 19.4666 33.2706C24.0095 34.8951 28.1759 35.1252 31.6062 32.2403C33.8929 30.2827 35.6578 27.3803 33.3066 25.0346C33.3065 25.0346 30.9887 22.717 30.9887 22.717C29.64 21.3098 27.1828 21.3102 25.8343 22.717C25.8343 22.717 25.2519 23.2993 25.2519 23.2993C23.2581 25.2931 20.0867 25.4776 17.8751 23.7285C16.845 22.9136 15.8425 22.0204 14.8956 21.0734C13.9483 20.1261 13.055 19.1236 12.2406 18.0938C10.4915 15.8824 10.676 12.7111 12.6698 10.7171L13.2521 10.1348C14.6593 8.78722 14.6589 6.3281 13.2521 4.9804C13.2522 4.9804 10.9343 2.66257 10.9343 2.66257C10.188 1.91621 9.37851 1.5458 8.4829 1.5458Z" fill="black"></path>
                    <path d="M28.9731 14.3276C28.6164 14.3276 28.2957 14.0793 28.2178 13.7164C27.9032 12.2497 27.1763 10.9139 26.1157 9.85338C25.0391 8.77675 23.6818 8.04529 22.1906 7.73808C21.7723 7.6519 21.503 7.24297 21.5892 6.82469C21.6754 6.40641 22.0843 6.13717 22.5026 6.22335C24.2908 6.59165 25.9184 7.46877 27.2093 8.75974C28.4811 10.0315 29.3528 11.6333 29.73 13.3921C29.8195 13.8096 29.5537 14.2208 29.1361 14.3103C29.0815 14.322 29.0269 14.3276 28.9731 14.3276Z" fill="#D9380C"></path>
                    <path d="M33.3417 18.6723C33.2913 18.6723 33.2401 18.6674 33.1887 18.6571C32.77 18.573 32.4987 18.1654 32.5828 17.7467C33.3883 13.7353 32.1419 9.61331 29.2489 6.72016C26.3505 3.8218 22.2216 2.57674 18.2042 3.38989C17.7855 3.47502 17.3776 3.20395 17.2929 2.78532C17.2082 2.36676 17.4789 1.95874 17.8974 1.87403C22.4245 0.957755 27.0766 2.36064 30.3425 5.62652C33.6023 8.88649 35.0067 13.5311 34.0991 18.051C34.0253 18.4185 33.7025 18.6723 33.3417 18.6723Z" fill="#D9380C"></path>
                  </g>
                </svg>