<svg width="30" height="30" viewBox="0 0 30 30" fill="none" xmlns="http://www.w3.org/2000/svg">
                  <g clip-path="url(#clip0_2_972)">
                  <path d="M6.43591 26.2796L4.96848 28.5376C4.68445 28.9778 4.80753 29.5648 5.24777 29.8488C5.40872 29.9529 5.5839 30.0003 5.76374 30.0003C6.07615 30.0003 6.37915 29.8488 6.55899 29.5695L7.9933 27.3636C10.0477 28.5848 12.4429 29.2902 14.9992 29.2902C17.5601 29.2902 19.9553 28.5849 22.005 27.3589L23.4346 29.5648C23.6144 29.8441 23.9222 29.9956 24.2298 29.9956C24.405 29.9956 24.5848 29.9482 24.7458 29.8441C25.186 29.5601 25.3091 28.9731 25.0251 28.5329L23.5624 26.275C26.7056 23.7614 28.7268 19.8939 28.7268 15.5626C28.7268 7.99346 22.5683 1.83496 14.9992 1.83496C7.42998 1.83496 1.27148 7.99338 1.27148 15.5626C1.27148 19.8939 3.29275 23.7613 6.43591 26.2796ZM14.9992 3.72832C21.5269 3.72832 26.8334 9.0348 26.8334 15.5626C26.8334 22.0903 21.5269 27.3968 14.9992 27.3968C8.47141 27.3968 3.16492 22.0903 3.16492 15.5626C3.16492 9.0348 8.47141 3.72832 14.9992 3.72832Z" fill="white"></path>
                  <path d="M18.1616 19.5907C18.3414 19.7469 18.564 19.8227 18.7864 19.8227C19.0515 19.8227 19.3119 19.7138 19.5012 19.5008C19.8467 19.1079 19.8041 18.5114 19.4112 18.1659L15.9462 15.1316V7.51508C15.9462 6.99437 15.5202 6.56836 14.9995 6.56836C14.4787 6.56836 14.0527 6.99437 14.0527 7.51508V15.5624C14.0527 15.8369 14.1711 16.0973 14.3746 16.2771L18.1616 19.5907Z" fill="white"></path>
                  <path d="M3.16434 4.92571C3.41051 4.92571 3.65667 4.83101 3.84126 4.64168C4.9679 3.4914 6.246 2.53045 7.63296 1.78255C8.09209 1.53638 8.26726 0.963656 8.0211 0.499703C7.77493 0.0405727 7.20221 -0.134605 6.73825 0.111561C5.1762 0.949426 3.74663 2.02397 2.48276 3.3163C2.11825 3.6903 2.123 4.2914 2.49699 4.65591C2.68624 4.83583 2.92766 4.92571 3.16434 4.92571Z" fill="#D9380C"></path>
                  <path d="M22.3655 1.78247C23.7572 2.52563 25.0306 3.49132 26.1572 4.6416C26.3418 4.83093 26.5879 4.92563 26.8341 4.92563C27.0708 4.92563 27.3122 4.83567 27.4968 4.65583C27.8708 4.29132 27.8755 3.69014 27.511 3.31623C26.2519 2.02864 24.8176 0.949347 23.2555 0.111561C22.7916 -0.134605 22.2188 0.0405727 21.9726 0.499703C21.7312 0.963577 21.9016 1.5363 22.3655 1.78247Z" fill="#D9380C"></path>
                  </g> 
                </svg>