<svg width="32" height="29" viewBox="0 0 32 29" fill="none" xmlns="http://www.w3.org/2000/svg">
                    <path fill-rule="evenodd" clip-rule="evenodd" d="M4.12508 4.91634C2.81341 4.91634 1.75008 5.97963 1.75008 7.29134V24.708C1.75008 26.0197 2.81341 27.083 4.12508 27.083H27.8751C29.1868 27.083 30.2501 26.0197 30.2501 24.708V11.2497C30.2501 10.8124 30.6045 10.458 31.0417 10.458C31.479 10.458 31.8334 10.8124 31.8334 11.2497V24.708C31.8334 26.8941 30.0612 28.6663 27.8751 28.6663H4.12508C1.93896 28.6663 0.166748 26.8941 0.166748 24.708V7.29134C0.166748 5.10523 1.93896 3.33301 4.12508 3.33301H21.5417C21.979 3.33301 22.3334 3.68745 22.3334 4.12467C22.3334 4.5619 21.979 4.91634 21.5417 4.91634H4.12508Z" fill="white"></path>
                    <path fill-rule="evenodd" clip-rule="evenodd" d="M7.52361 9.89787C7.83275 9.58873 8.33404 9.58873 8.64318 9.89787L15.4403 16.695C15.7494 17.0041 16.2507 17.0041 16.5598 16.695L23.3569 9.89787C23.6661 9.58873 24.1674 9.58873 24.4765 9.89787C24.7857 10.207 24.7857 10.7083 24.4765 11.0174L17.6794 17.8145C16.7519 18.7421 15.2482 18.7421 14.3207 17.8145L7.52361 11.0174C7.21446 10.7083 7.21446 10.207 7.52361 9.89787Z" fill="white"></path>
                    <path fill-rule="evenodd" clip-rule="evenodd" d="M28.6667 5.70801C29.5411 5.70801 30.25 4.99915 30.25 4.12467C30.25 3.25022 29.5411 2.54134 28.6667 2.54134C27.7922 2.54134 27.0833 3.25022 27.0833 4.12467C27.0833 4.99915 27.7922 5.70801 28.6667 5.70801ZM28.6667 7.29134C30.4155 7.29134 31.8333 5.87355 31.8333 4.12467C31.8333 2.37577 30.4155 0.958008 28.6667 0.958008C26.9178 0.958008 25.5 2.37577 25.5 4.12467C25.5 5.87355 26.9178 7.29134 28.6667 7.29134Z" fill="#D9380C"></path>
                  </svg>