<svg width="60" height="60" viewBox="0 0 60 60" fill="none" xmlns="http://www.w3.org/2000/svg">
                <g clip-path="url(#clip0_2_16207)">
                  <path d="M23.7281 43.5764C23.4873 43.4913 23.242 43.4028 22.9964 43.3116V38.7486C23.6086 38.9526 24.011 39.238 24.0324 39.2535C24.548 39.639 25.279 39.5364 25.6683 39.0226C26.0591 38.5067 25.9579 37.7716 25.4419 37.3808C25.3799 37.3338 24.4173 36.62 22.9964 36.3251V35.364C22.9964 34.7169 22.4717 34.1921 21.8245 34.1921C21.1774 34.1921 20.6527 34.7169 20.6527 35.364V36.3172C20.4996 36.3492 20.3451 36.3872 20.1885 36.4342C18.658 36.8939 17.5145 38.2012 17.2038 39.8461C16.9195 41.3516 17.4045 42.8055 18.4692 43.6406C19.0231 44.075 19.7107 44.4717 20.6527 44.8903V50.8314C19.871 50.7675 19.3636 50.5689 18.5078 50.0091C17.966 49.6548 17.2399 49.8068 16.8856 50.3484C16.5314 50.8901 16.6832 51.6163 17.2249 51.9707C18.563 52.8459 19.4789 53.1116 20.6527 53.181V54.167C20.6527 54.8141 21.1774 55.3389 21.8245 55.3389C22.4717 55.3389 22.9964 54.8141 22.9964 54.167V53.0477C25.1776 52.5108 26.5764 50.6549 26.884 48.825C27.2824 46.4551 26.0438 44.395 23.7281 43.5764ZM19.9157 41.7966C19.5481 41.5082 19.3876 40.9133 19.507 40.281C19.6123 39.7234 19.9685 39.0592 20.6527 38.7579V42.2771C20.377 42.1227 20.1272 41.9625 19.9157 41.7966ZM24.5727 48.4364C24.4338 49.2618 23.8992 50.1341 22.9964 50.572V45.8052C24.7579 46.457 24.6492 47.9811 24.5727 48.4364Z" fill="#D9380C"></path>
                  <path d="M47.264 7.90772C47.5723 7.90772 47.8745 7.78244 48.0925 7.56436C48.3105 7.34627 48.4359 7.04404 48.4359 6.73584C48.4359 6.42646 48.3106 6.12529 48.0925 5.90744C47.8745 5.68947 47.5723 5.56396 47.264 5.56396C46.9558 5.56396 46.6534 5.68936 46.4356 5.90744C46.2176 6.12529 46.0921 6.42764 46.0921 6.73584C46.0921 7.04404 46.2175 7.34639 46.4356 7.56436C46.6534 7.78244 46.9558 7.90772 47.264 7.90772Z" fill="#D9380C"></path>
                  <path d="M59.971 23.9184C58.7341 18.453 56.0104 13.4231 52.0943 9.37252C51.6444 8.90717 50.9025 8.89475 50.4371 9.34463C49.9719 9.79451 49.9594 10.5364 50.4092 11.0018C53.2379 13.9275 55.3927 17.405 56.7443 21.1952C54.4704 19.9011 51.8883 19.2103 49.2199 19.2103C46.1135 19.2103 43.1246 20.1465 40.6024 21.8799C40.0228 16.1748 38.8581 11.0253 37.2734 7.21909C36.4555 5.25468 35.5988 3.80191 34.748 2.73597C37.3308 3.16921 39.8317 3.96011 42.2229 5.10292C42.8064 5.38182 43.5064 5.13479 43.7855 4.55085C44.0646 3.96702 43.8173 3.2673 43.2334 2.98828C39.0846 1.00547 34.6323 0 30 0C26.4225 0 22.917 0.609608 19.5809 1.81183C16.3572 2.97363 13.3658 4.66007 10.6899 6.82428C5.32847 11.1606 1.5425 17.2313 0.0291402 23.9184C-0.0845314 24.4203 0.142695 24.9377 0.589178 25.1937C1.03578 25.4497 1.59699 25.3843 1.97281 25.0327C4.36999 22.7893 7.49784 21.5539 10.7803 21.5539C14.064 21.5539 17.1924 22.7893 19.5895 25.0327C20.0402 25.4544 20.7402 25.4544 21.1909 25.0327C23.301 23.058 25.9779 21.8648 28.8283 21.6072V31.2395C26.7301 30.1488 24.3482 29.5312 21.8246 29.5312C13.4242 29.5312 6.59022 36.3652 6.59022 44.7655C6.59022 53.1659 13.4242 59.9999 21.8246 59.9999H46.6406C47.2877 59.9999 47.8125 59.4751 47.8125 58.828L47.8126 38.4375C47.8126 37.7904 47.2878 37.2657 46.6407 37.2657H35.0807C34.0854 35.5134 32.753 33.9766 31.1719 32.7444V21.6071C34.0222 21.8647 36.6991 23.0579 38.8092 25.0326C39.2599 25.4542 39.96 25.4542 40.4107 25.0326C42.8078 22.7892 45.9362 21.5538 49.2199 21.5538C52.5023 21.5538 55.6302 22.7892 58.0273 25.0326C58.25 25.241 58.5378 25.3488 58.8284 25.3488C59.0281 25.3488 59.2291 25.2978 59.411 25.1936C59.8576 24.9377 60.0847 24.4203 59.971 23.9184ZM45.4687 57.6561H29.9344C31.7515 56.5089 33.3103 54.9885 34.5026 53.203H45.4687V57.6561ZM36.9703 46.4063H45.4687V50.8593H35.7856C36.3942 49.4701 36.8017 47.9735 36.9703 46.4063ZM45.4689 39.6094V44.0625H37.042C36.971 42.5064 36.6655 41.0106 36.16 39.6094H45.4689ZM34.7152 44.7655C34.7152 51.8734 28.9324 57.6561 21.8246 57.6561C14.7167 57.6561 8.93397 51.8734 8.93397 44.7655C8.93397 37.6577 14.7167 31.8749 21.8246 31.8749C28.9324 31.8749 34.7152 37.6577 34.7152 44.7655ZM19.3977 21.8798C16.8755 20.1464 13.8867 19.2102 10.7803 19.2102C8.10826 19.2102 5.52323 19.9026 3.2471 21.2001C6.68866 11.4343 15.1033 4.41878 25.2533 2.73445C24.4022 3.8005 23.5451 5.25362 22.7268 7.21897C21.1419 11.0252 19.9773 16.1747 19.3977 21.8798ZM30 19.2102C27.0559 19.2102 24.2175 20.0513 21.7817 21.6148C22.353 16.3375 23.4368 11.6111 24.8904 8.11979C26.4188 4.44902 28.2812 2.34375 30 2.34375C31.7189 2.34375 33.5814 4.44902 35.1097 8.11979C36.5633 11.6111 37.6471 16.3375 38.2185 21.6148C35.7826 20.0513 32.9442 19.2102 30 19.2102Z" fill="#D9380C"></path>
                </g>
              </svg>