<svg width="53" height="53" viewBox="0 0 53 53" fill="none" xmlns="http://www.w3.org/2000/svg">
                <g clip-path="url(#clip0_2_16216)">
                  <path d="M44.3387 33.051C46.5533 29.6876 47.8444 25.6646 47.8444 21.3448C47.8444 9.5752 38.2688 0 26.4992 0C14.7295 0 5.15435 9.5752 5.15435 21.3448C5.15435 25.6646 6.44547 29.6876 8.65973 33.051L0.310547 45.2274L9.86431 43.4462L11.6459 53L19.5196 41.5166C21.708 42.276 24.0561 42.6897 26.4992 42.6897C28.9427 42.6897 31.2908 42.276 33.4788 41.5166L41.3529 53L43.1341 43.4462L52.6878 45.2274L44.3387 33.051ZM13.3341 45.0139L12.3624 39.8026L7.15147 40.7746L10.6678 35.6462C12.3519 37.5086 14.3596 39.0727 16.6005 40.251L13.3341 45.0139ZM8.27802 21.3448C8.27802 11.2978 16.4521 3.12366 26.4992 3.12366C36.5467 3.12366 44.7208 11.2978 44.7208 21.3448C44.7208 31.3923 36.5467 39.5664 26.4992 39.5664C16.4521 39.5664 8.27802 31.3923 8.27802 21.3448ZM40.6359 39.8026L39.6643 45.0139L36.3983 40.251C38.6392 39.0727 40.6469 37.5086 42.331 35.6462L45.8473 40.7742L40.6359 39.8026Z" fill="#D9380C"></path>
                  <path d="M22.6942 26.0326L17.6154 20.9543L15.4068 23.1629L22.6942 30.4502L37.5919 15.5528L35.3833 13.3442L22.6942 26.0326Z" fill="#D9380C"></path>
                  </g>
              </svg>