<svg width="58" height="58" viewBox="0 0 58 58" fill="none" xmlns="http://www.w3.org/2000/svg">
                <g clip-path="url(#clip0_2_16186)">
                  <path d="M11.8385 46.2188H46.276C46.7765 46.2188 47.1823 45.8134 47.1823 45.3125V13.5938C47.1823 13.0928 46.7765 12.6875 46.276 12.6875H11.8385C11.338 12.6875 10.9323 13.0928 10.9323 13.5938V45.3125C10.9323 45.8134 11.338 46.2188 11.8385 46.2188ZM12.7448 14.5H25.4323V21.75C25.4323 22.0545 25.5854 22.3385 25.8398 22.5067C26.0934 22.6748 26.416 22.7031 26.6957 22.5828L29.0574 21.5703L31.4191 22.5828C31.5337 22.6325 31.6549 22.6562 31.7761 22.6562C31.9509 22.6562 32.1248 22.6058 32.2748 22.5067C32.5292 22.3386 32.6824 22.0545 32.6824 21.75V19.0312C32.6824 18.5303 32.2766 18.125 31.7761 18.125C31.2756 18.125 30.8699 18.5303 30.8699 19.0312V20.3756L29.4144 19.7516C29.1861 19.6543 28.9286 19.6543 28.7002 19.7516L27.2448 20.3756V14.5H30.8698V16.3125C30.8698 16.8134 31.2755 17.2188 31.776 17.2188C32.2765 17.2188 32.6823 16.8134 32.6823 16.3125V14.5H45.3698V44.4062H12.7448V14.5Z" fill="#D9380C"></path>
                  <path d="M56.5102 21.1093L55.8735 21.7465C52.7573 9.04925 41.7288 0 29.0572 0C15.8427 0 4.41547 9.8395 1.88522 23.3961C1.79324 23.8882 2.11756 24.3616 2.60966 24.4537C2.66585 24.4634 2.72203 24.4688 2.77697 24.4688C3.20484 24.4688 3.58546 24.1642 3.6668 23.7289C6.03721 11.0299 16.7153 1.8125 29.0572 1.8125C40.897 1.8125 51.2007 10.2975 54.1126 22.1989L52.9064 21.7969C52.4303 21.6367 51.9178 21.8951 51.7599 22.3695C51.6015 22.8447 51.8581 23.3581 52.333 23.5156L55.0517 24.4219C55.0545 24.4228 55.0572 24.4223 55.0599 24.4232C55.0636 24.4245 55.0666 24.427 55.0703 24.4281C55.1546 24.4541 55.2407 24.4658 55.3267 24.4668C55.3306 24.4668 55.3346 24.4688 55.3385 24.4688C55.361 24.4688 55.382 24.46 55.4044 24.4584C55.4662 24.4538 55.5271 24.4468 55.5865 24.4299C55.6193 24.4205 55.6488 24.4059 55.6803 24.3929C55.7298 24.3726 55.7776 24.3505 55.8232 24.3215C55.8546 24.3015 55.8825 24.2785 55.9113 24.2548C55.9334 24.2365 55.9588 24.2238 55.9793 24.2033L57.7918 22.3908C58.1458 22.0368 58.1458 21.4633 57.7918 21.1094C57.4378 20.7555 56.8642 20.7553 56.5102 21.1093Z" fill="#D9380C"></path>
                  <path d="M55.5049 33.5464C55.0079 33.4588 54.5397 33.7799 54.4477 34.2711C52.0772 46.9702 41.3992 56.1875 29.0572 56.1875C17.2174 56.1875 6.91367 47.7026 4.00178 35.8011L5.208 36.2031C5.30316 36.235 5.40001 36.25 5.49471 36.25C5.87443 36.25 6.22798 36.0102 6.35452 35.6305C6.51289 35.1553 6.2563 34.6419 5.78143 34.4844L3.06268 33.5782C3.0603 33.5774 3.05792 33.5781 3.05543 33.5773C3.05135 33.5759 3.04818 33.5732 3.0441 33.572C2.94441 33.5408 2.84235 33.5339 2.74096 33.5379C2.71151 33.539 2.68421 33.5432 2.65521 33.5472C2.57353 33.5584 2.49537 33.58 2.41947 33.6127C2.39783 33.6221 2.3754 33.6274 2.35456 33.6385C2.27526 33.6803 2.20038 33.7315 2.13513 33.7967L0.322632 35.6092C-0.0313721 35.9632 -0.0313721 36.5368 0.322632 36.8907C0.676636 37.2445 1.25018 37.2447 1.60407 36.8907L2.24082 36.2534C5.35719 48.9508 16.3857 58 29.0572 58C42.2717 58 53.6989 48.1605 56.2292 34.604C56.3213 34.1119 55.997 33.6383 55.5049 33.5464Z" fill="#D9380C"></path>
                </g>
              </svg>