<svg width="60" height="60" viewBox="0 0 60 60" fill="none" xmlns="http://www.w3.org/2000/svg">
                <path d="M42.0132 36.8374C41.7865 36.8385 41.5669 36.759 41.3934 36.6132L34.1802 30.7715C34.0668 30.6774 33.9755 30.5596 33.9128 30.4262C33.8501 30.2929 33.8176 30.1474 33.8176 30V13.8462C33.8176 13.5839 33.9218 13.3323 34.1072 13.1469C34.2927 12.9614 34.5443 12.8572 34.8066 12.8572C35.0689 12.8572 35.3204 12.9614 35.5059 13.1469C35.6914 13.3323 35.7956 13.5839 35.7956 13.8462V29.5319L42.6395 35.077C42.8023 35.2072 42.9198 35.3856 42.9752 35.5865C43.0306 35.7875 43.021 36.0009 42.9479 36.1961C42.8748 36.3914 42.7418 36.5585 42.568 36.6737C42.3942 36.7889 42.1885 36.8462 41.9802 36.8374H42.0132Z" fill="#D9380C"></path>
                <path d="M24.8769 40.8H13.8461C13.5838 40.8 13.3323 40.6958 13.1468 40.5104C12.9613 40.3249 12.8571 40.0733 12.8571 39.811C12.8571 39.5487 12.9613 39.2972 13.1468 39.1117C13.3323 38.9262 13.5838 38.822 13.8461 38.822H24.8769C25.1392 38.822 25.3908 38.9262 25.5762 39.1117C25.7617 39.2972 25.8659 39.5487 25.8659 39.811C25.8659 40.0733 25.7617 40.3249 25.5762 40.5104C25.3908 40.6958 25.1392 40.8 24.8769 40.8Z" fill="#D9380C"></path>
                <path d="M20.4 30.1846H1.83954C1.57723 30.1846 1.32568 30.0804 1.1402 29.8949C0.954724 29.7094 0.850525 29.4579 0.850525 29.1956C0.850525 28.9333 0.954724 28.6817 1.1402 28.4962C1.32568 28.3107 1.57723 28.2065 1.83954 28.2065H20.4C20.6623 28.2065 20.9138 28.3107 21.0993 28.4962C21.2848 28.6817 21.389 28.9333 21.389 29.1956C21.389 29.4579 21.2848 29.7094 21.0993 29.8949C20.9138 30.0804 20.6623 30.1846 20.4 30.1846Z" fill="#D9380C"></path>
                <path d="M13.3385 19.4504H6.74505C6.48275 19.4504 6.23119 19.3462 6.04572 19.1608C5.86024 18.9753 5.75604 18.7237 5.75604 18.4614C5.75604 18.1991 5.86024 17.9476 6.04572 17.7621C6.23119 17.5766 6.48275 17.4724 6.74505 17.4724H13.3385C13.6008 17.4724 13.8523 17.5766 14.0378 17.7621C14.2233 17.9476 14.3275 18.1991 14.3275 18.4614C14.3275 18.7237 14.2233 18.9753 14.0378 19.1608C13.8523 19.3462 13.6008 19.4504 13.3385 19.4504Z" fill="#D9380C"></path>
                <path d="M34.8066 48.7913C34.5443 48.7913 34.2927 48.6871 34.1072 48.5016C33.9218 48.3162 33.8176 48.0646 33.8176 47.8023V47.6045C33.8176 47.3422 33.9218 47.0906 34.1072 46.9052C34.2927 46.7197 34.5443 46.6155 34.8066 46.6155C35.0689 46.6155 35.3204 46.7197 35.5059 46.9052C35.6914 47.0906 35.7956 47.3422 35.7956 47.6045V47.8023C35.7956 48.0646 35.6914 48.3162 35.5059 48.5016C35.3204 48.6871 35.0689 48.7913 34.8066 48.7913Z" fill="#D9380C"></path>
                <path d="M53.2286 30.989H53.0308C52.7685 30.989 52.5169 30.8848 52.3314 30.6993C52.1459 30.5139 52.0417 30.2623 52.0417 30C52.0417 29.7377 52.1459 29.4861 52.3314 29.3007C52.5169 29.1152 52.7685 29.011 53.0308 29.011H53.2286C53.4909 29.011 53.7424 29.1152 53.9279 29.3007C54.1134 29.4861 54.2176 29.7377 54.2176 30C54.2176 30.2623 54.1134 30.5139 53.9279 30.6993C53.7424 30.8848 53.4909 30.989 53.2286 30.989Z" fill="#D9380C"></path>
                <path d="M11.7428 34.1934C11.5047 34.194 11.2745 34.108 11.095 33.9516C10.9155 33.7951 10.799 33.5788 10.767 33.3429C10.6149 32.2352 10.5422 31.118 10.5494 30C10.5494 29.7377 10.6536 29.4861 10.8391 29.3007C11.0246 29.1152 11.2761 29.011 11.5384 29.011C11.8008 29.011 12.0523 29.1152 12.2378 29.3007C12.4233 29.4861 12.5275 29.7377 12.5275 30C12.5276 31.0256 12.5981 32.05 12.7384 33.0659C12.7559 33.1965 12.7472 33.3292 12.7127 33.4563C12.6782 33.5834 12.6187 33.7023 12.5376 33.8061C12.4566 33.9099 12.3556 33.9965 12.2406 34.0607C12.1256 34.125 11.999 34.1656 11.8681 34.1802L11.7428 34.1934Z" fill="#D9380C"></path>
                <path d="M34.8066 54.2704C31.5446 54.2819 28.3143 53.6303 25.3119 52.3552C22.3095 51.0801 19.5975 49.2081 17.3406 46.8528C17.1902 46.6594 17.1169 46.4169 17.135 46.1725C17.1531 45.928 17.2613 45.699 17.4387 45.5299C17.6161 45.3607 17.85 45.2635 18.095 45.2569C18.34 45.2504 18.5787 45.3351 18.7648 45.4946C20.8379 47.6564 23.3291 49.3739 26.0869 50.5425C28.8447 51.7112 31.8114 52.3065 34.8066 52.2924C38.7799 52.2913 42.6806 51.2282 46.1051 49.2133C49.5296 47.1984 52.3533 44.3048 54.2839 40.8322C56.2146 37.3595 57.182 33.4339 57.0861 29.4618C56.9901 25.4897 55.8343 21.6154 53.7383 18.24C51.6422 14.8646 48.6821 12.1107 45.1643 10.2635C41.6466 8.41623 37.699 7.54276 33.7303 7.73346C29.7616 7.92416 25.916 9.17211 22.5916 11.3481C19.2672 13.5241 16.5847 16.5491 14.822 20.11C14.7048 20.3452 14.499 20.5242 14.2499 20.6076C14.0007 20.6911 13.7286 20.6722 13.4934 20.555C13.2582 20.4379 13.0792 20.2321 12.9957 19.9829C12.9122 19.7338 12.9312 19.4616 13.0483 19.2264C14.9676 15.3479 17.8887 12.0528 21.5093 9.68241C25.1298 7.31203 29.3182 5.9525 33.6407 5.74459C37.9631 5.53668 42.2626 6.48795 46.094 8.49991C49.9253 10.5119 53.1492 13.5114 55.4319 17.1878C57.7145 20.8643 58.973 25.0841 59.0769 29.4104C59.1809 33.7366 58.1265 38.012 56.0231 41.7938C53.9196 45.5757 50.8435 48.7266 47.1132 50.9202C43.3829 53.1138 39.1341 54.2705 34.8066 54.2704Z" fill="#D9380C"></path>
                <path d="M8.26814 40.8H6.46814C6.20584 40.8 5.95428 40.6958 5.7688 40.5104C5.58332 40.3249 5.47913 40.0733 5.47913 39.811C5.47913 39.5487 5.58332 39.2972 5.7688 39.1117C5.95428 38.9262 6.20584 38.822 6.46814 38.822H8.26814C8.53044 38.822 8.782 38.9262 8.96747 39.1117C9.15295 39.2972 9.25715 39.5487 9.25715 39.811C9.25715 40.0733 9.15295 40.3249 8.96747 40.5104C8.782 40.6958 8.53044 40.8 8.26814 40.8Z" fill="#D9380C"></path>
                <path d="M12.6462 23.5252C12.4796 23.5233 12.3162 23.4796 12.171 23.3981C12.0257 23.3167 11.9032 23.2001 11.8146 23.0591C11.726 22.918 11.6743 22.757 11.6641 22.5908C11.6538 22.4246 11.6855 22.2584 11.7561 22.1076L13.1275 19.2395C13.1833 19.1222 13.2617 19.017 13.3582 18.93C13.4547 18.8429 13.5674 18.7758 13.6899 18.7323C13.8123 18.6888 13.9421 18.6699 14.0719 18.6766C14.2017 18.6833 14.3288 18.7155 14.4462 18.7713C14.5635 18.8272 14.6687 18.9056 14.7557 19.0021C14.8427 19.0986 14.9099 19.2113 14.9533 19.3337C14.9968 19.4562 15.0157 19.586 15.009 19.7158C15.0023 19.8455 14.9701 19.9727 14.9143 20.09L13.5429 22.9648C13.4611 23.133 13.3337 23.2747 13.1751 23.3739C13.0165 23.473 12.8332 23.5254 12.6462 23.5252Z" fill="#D9380C"></path>
              </svg>