<svg width="26" height="26" viewBox="0 0 26 26" xmlns="http://www.w3.org/2000/svg">
                <path d="M8.02148 20.5312C7.94355 20.5878 7.84905 20.6249 7.74609 20.625H5.95801C5.89515 20.625 5.83752 20.6153 5.78418 20.6016L5.97363 20.5957L7.70508 20.541V20.542H7.74609V20.5391L8.02148 20.5312ZM5.4043 18.3232L5.45898 20.1113L5.4668 20.3867C5.40702 20.2999 5.375 20.1981 5.375 20.0957V18.2539L5.38574 18.1445C5.38852 18.1311 5.3937 18.1184 5.39746 18.1055L5.4043 18.3232ZM8.19141 18.0859C8.2094 18.1393 8.22067 18.1956 8.2207 18.2539V20.1211L8.22363 20.1455C8.2294 20.2032 8.21662 20.2638 8.19141 20.3223V18.0859ZM10.833 19.2959H20.583C20.6007 19.2959 20.6124 19.2991 20.6191 19.3008C20.6209 19.3073 20.625 19.3192 20.625 19.3379C20.6249 19.3396 20.6246 19.3442 20.6221 19.3506C20.6193 19.3576 20.6148 19.3644 20.6104 19.3691C20.6065 19.3732 20.6029 19.3749 20.6006 19.376C20.5988 19.3768 20.5936 19.3789 20.583 19.3789H10.833C10.814 19.3789 10.8023 19.3758 10.7959 19.374C10.7942 19.3674 10.792 19.3558 10.792 19.3379C10.792 19.3196 10.7942 19.3074 10.7959 19.3008C10.8023 19.299 10.8141 19.2959 10.833 19.2959ZM5.9043 17.7246H7.69141C7.7453 17.7246 7.79651 17.7346 7.84473 17.749L7.67676 17.7549L5.88867 17.8086L5.60645 17.8164C5.69237 17.7582 5.79577 17.7246 5.9043 17.7246ZM8.02246 14.3564C7.93885 14.4139 7.84292 14.4501 7.74609 14.4502H5.95801C5.90535 14.4502 5.85584 14.4396 5.80859 14.4258L5.97363 14.4209L7.70703 14.3662H7.74609V14.3643L8.02246 14.3564ZM8.19141 11.8486C8.24445 11.9319 8.27539 12.0305 8.27539 12.1338V13.9209C8.27538 14.0116 8.24247 14.1009 8.19141 14.1807V11.8486ZM5.45898 13.9355L5.46387 14.1035C5.44256 14.0459 5.42872 13.9847 5.42871 13.9209V12.9404L5.45898 13.9355ZM10.833 13.1211H20.583C20.6005 13.1211 20.6124 13.1233 20.6191 13.125C20.6209 13.1313 20.625 13.1429 20.625 13.1621C20.625 13.1635 20.6249 13.1688 20.6221 13.1758C20.6193 13.1827 20.6147 13.1886 20.6104 13.1934C20.6063 13.1977 20.603 13.2 20.6006 13.2012C20.5988 13.202 20.5936 13.2041 20.583 13.2041H10.833C10.8138 13.2041 10.8022 13.2 10.7959 13.1982C10.7942 13.1915 10.792 13.1796 10.792 13.1621C10.792 13.1433 10.7941 13.1314 10.7959 13.125C10.8023 13.1232 10.8142 13.1211 10.833 13.1211ZM5.95801 11.6045H6.84668L5.88867 11.6338L5.78027 11.6367C5.83647 11.6166 5.8961 11.6045 5.95801 11.6045ZM8.02148 8.18164C7.94358 8.23811 7.84897 8.27533 7.74609 8.27539H5.95801C5.90426 8.27536 5.85376 8.26439 5.80566 8.25L5.97363 8.24512L7.70703 8.19141H7.74609V8.18945L8.02148 8.18164ZM8.19141 5.73633C8.20935 5.7897 8.2207 5.84598 8.2207 5.9043V7.77051L8.22363 7.7959C8.22933 7.85359 8.21667 7.91424 8.19141 7.97266V5.73633ZM5.45898 7.76074L5.46387 7.92871C5.44254 7.87108 5.42874 7.80985 5.42871 7.74609V6.76562L5.45898 7.76074ZM10.833 6.94629H20.583C20.6006 6.94629 20.6124 6.9485 20.6191 6.9502C20.6209 6.95655 20.625 6.96816 20.625 6.9873C20.625 6.98866 20.6249 6.99396 20.6221 7.00098C20.6193 7.0079 20.6147 7.01385 20.6104 7.01855C20.6063 7.0229 20.603 7.02525 20.6006 7.02637C20.5988 7.02716 20.5936 7.0293 20.583 7.0293H10.833C10.8138 7.02927 10.8022 7.0252 10.7959 7.02344C10.7942 7.0167 10.792 7.00497 10.792 6.9873C10.792 6.96857 10.7941 6.95666 10.7959 6.9502C10.8023 6.94844 10.8142 6.94632 10.833 6.94629ZM5.9043 5.375H7.69141C7.74491 5.375 7.79584 5.3842 7.84375 5.39844L7.67676 5.4043L5.88867 5.45898L5.60645 5.4668C5.68451 5.41018 5.78552 5.375 5.9043 5.375Z" stroke="black"></path>
              </svg>