<svg width="28" height="36" viewBox="0 0 28 36" fill="none" xmlns="http://www.w3.org/2000/svg">
                    <path fill-rule="evenodd" clip-rule="evenodd" d="M13.9999 3.00494C7.66015 3.00494 2.52075 8.17617 2.52075 14.5552C2.52075 16.0006 3.18823 17.8544 4.34715 19.9256C5.48822 21.9649 7.02524 24.0754 8.58613 25.9976C10.1434 27.9152 11.7039 29.6204 12.8766 30.8473C13.3121 31.3029 13.6933 31.6916 13.9999 32C14.3066 31.6916 14.6877 31.3029 15.1232 30.8473C16.2959 29.6204 17.8565 27.9152 19.4137 25.9976C20.9746 24.0754 22.5116 21.9649 23.6527 19.9256C24.8116 17.8544 25.4791 16.0006 25.4791 14.5552C25.4791 8.17617 20.3397 3.00494 13.9999 3.00494ZM13.9999 33.6728C13.1831 34.5401 13.1827 34.5397 13.1827 34.5397L13.1719 34.5294L13.1427 34.5014L13.0326 34.3948C12.9369 34.3018 12.7978 34.1656 12.6214 33.9904C12.2687 33.6401 11.7666 33.1333 11.1649 32.5038C9.96264 31.246 8.35646 29.4915 6.74701 27.5096C5.14128 25.5322 3.51161 23.3033 2.27765 21.0981C1.06163 18.9249 0.145752 16.6292 0.145752 14.5552C0.145752 6.85637 6.34846 0.615234 13.9999 0.615234C21.6514 0.615234 27.8541 6.85637 27.8541 14.5552C27.8541 16.6292 26.9382 18.9249 25.7222 21.0981C24.4882 23.3033 22.8585 25.5322 21.2528 27.5096C19.6434 29.4915 18.0372 31.246 16.835 32.5038C16.2332 33.1333 15.7311 33.6401 15.3785 33.9904C15.2021 34.1656 15.0629 34.3018 14.9672 34.3948L14.8571 34.5014L14.8279 34.5294L14.8201 34.537L14.8178 34.5391C14.8178 34.5391 14.8168 34.5401 13.9999 33.6728ZM13.9999 33.6728L14.8178 34.5391L13.9999 35.319L13.1827 34.5397L13.9999 33.6728Z" fill="white"></path>
                    <path d="M13.9998 16.1481C14.8743 16.1481 15.5831 15.4349 15.5831 14.555C15.5831 13.6752 14.8743 12.9619 13.9998 12.9619C13.1254 12.9619 12.4165 13.6752 12.4165 14.555C12.4165 15.4349 13.1254 16.1481 13.9998 16.1481Z" fill="white"></path>
                    <path fill-rule="evenodd" clip-rule="evenodd" d="M13.9998 14.1573C13.7812 14.1573 13.604 14.3355 13.604 14.5555C13.604 14.7755 13.7812 14.9538 13.9998 14.9538C14.2185 14.9538 14.3956 14.7755 14.3956 14.5555C14.3956 14.3355 14.2185 14.1573 13.9998 14.1573ZM11.229 14.5555C11.229 13.0157 12.4696 11.7676 13.9998 11.7676C15.5301 11.7676 16.7706 13.0157 16.7706 14.5555C16.7706 16.0953 15.5301 17.3435 13.9998 17.3435C12.4696 17.3435 11.229 16.0953 11.229 14.5555Z" fill="#D9380C"></path>
                  </svg>