<svg width="32" height="29" viewBox="0 0 32 29" fill="none" xmlns="http://www.w3.org/2000/svg">
                    <path fill-rule="evenodd" clip-rule="evenodd" d="M4.12435 4.91634C2.81268 4.91634 1.74935 5.97963 1.74935 7.29134V24.708C1.74935 26.0197 2.81268 27.083 4.12435 27.083H27.8743C29.1861 27.083 30.2493 26.0197 30.2493 24.708V11.2497C30.2493 10.8124 30.6038 10.458 31.041 10.458C31.4783 10.458 31.8327 10.8124 31.8327 11.2497V24.708C31.8327 26.8941 30.0605 28.6663 27.8743 28.6663H4.12435C1.93822 28.6663 0.166016 26.8941 0.166016 24.708V7.29134C0.166016 5.10523 1.93822 3.33301 4.12435 3.33301H21.541C21.9783 3.33301 22.3327 3.68745 22.3327 4.12467C22.3327 4.5619 21.9783 4.91634 21.541 4.91634H4.12435Z" fill="white"></path>
                    <path fill-rule="evenodd" clip-rule="evenodd" d="M7.52287 9.89787C7.83202 9.58873 8.3333 9.58873 8.64245 9.89787L15.4395 16.695C15.7487 17.0041 16.25 17.0041 16.5591 16.695L23.3562 9.89787C23.6654 9.58873 24.1666 9.58873 24.4758 9.89787C24.7849 10.207 24.7849 10.7083 24.4758 11.0174L17.6787 17.8145C16.7512 18.7421 15.2475 18.7421 14.32 17.8145L7.52287 11.0174C7.21373 10.7083 7.21373 10.207 7.52287 9.89787Z" fill="white"></path>
                    <path fill-rule="evenodd" clip-rule="evenodd" d="M28.6667 5.70801C29.5411 5.70801 30.25 4.99915 30.25 4.12467C30.25 3.25022 29.5411 2.54134 28.6667 2.54134C27.7922 2.54134 27.0833 3.25022 27.0833 4.12467C27.0833 4.99915 27.7922 5.70801 28.6667 5.70801ZM28.6667 7.29134C30.4155 7.29134 31.8333 5.87355 31.8333 4.12467C31.8333 2.37577 30.4155 0.958008 28.6667 0.958008C26.9178 0.958008 25.5 2.37577 25.5 4.12467C25.5 5.87355 26.9178 7.29134 28.6667 7.29134Z" fill="#D9380C"></path>
                    </svg>