<svg width="32" height="32" viewBox="0 0 32 32" fill="none" xmlns="http://www.w3.org/2000/svg">
                    <g clip-path="url(#clip0_2_14092)">
                      <path d="M22.4958 32C11.375 31.8709 -2.55241 17.5874 0.439758 6.34149C1.04589 3.04456 6.89101 -2.64327 10.6916 1.39476C12.2027 2.99564 14.1487 4.24233 14.0987 6.71785C14.1096 8.27955 13.3637 9.48701 12.2342 10.4984C10.9552 11.7774 10.8368 13.8119 11.9589 15.2306C13.3405 16.9791 14.9932 18.6316 16.7419 20.0137C18.1606 21.1356 20.195 21.0173 21.4741 19.7383L21.9918 19.2207C22.8602 18.3522 24.019 17.8738 25.2547 17.8738C27.7272 17.8221 28.9816 19.7736 30.5779 21.2809C34.6098 25.1157 28.9422 30.9044 25.6311 31.5327C24.6653 31.8447 23.6139 32 22.4958 32ZM7.54039 1.37407C5.23533 1.28359 2.16111 4.62901 1.78925 6.60744C-0.632784 15.8268 9.00891 26.435 17.3037 29.5739C21.3418 31.0179 25.0452 31.2224 28.0944 28.6581C30.127 26.9179 31.6958 24.3381 29.6059 22.253C29.6058 22.253 27.5456 20.1929 27.5456 20.1929C26.3467 18.9421 24.1625 18.9424 22.9638 20.1929C22.9638 20.1929 22.4461 20.7105 22.4461 20.7105C20.6739 22.4828 17.8549 22.6468 15.889 21.092C14.9733 20.3677 14.0822 19.5737 13.2406 18.732C12.3985 17.8899 11.6045 16.9988 10.8806 16.0834C9.32579 14.1177 9.48982 11.2988 11.262 9.52637L11.7797 9.00872C13.0305 7.81089 13.0301 5.625 11.7797 4.42705C11.7798 4.42705 9.7194 2.36676 9.7194 2.36676C9.05603 1.70332 8.33648 1.37407 7.54039 1.37407Z" fill="white"></path>
                      <path d="M25.7538 12.7357C25.4367 12.7357 25.1516 12.5149 25.0824 12.1923C24.8028 10.8886 24.1566 9.70124 23.2139 8.75854C22.2569 7.80154 21.0504 7.15136 19.7249 6.87828C19.3531 6.80167 19.1137 6.43818 19.1903 6.06638C19.267 5.69457 19.6304 5.45525 20.0022 5.53186C21.5918 5.85923 23.0385 6.63889 24.1859 7.78642C25.3164 8.91689 26.0913 10.3407 26.4266 11.9041C26.5062 12.2752 26.2699 12.6407 25.8987 12.7203C25.8501 12.7307 25.8016 12.7357 25.7538 12.7357Z" fill="#D9380C"></path>
                      <path d="M29.6371 16.5973C29.5922 16.5973 29.5467 16.5929 29.501 16.5837C29.1289 16.509 28.8877 16.1467 28.9625 15.7745C29.6784 12.2088 28.5705 8.54482 25.999 5.97313C23.4227 3.39681 19.7525 2.29009 16.1815 3.01289C15.8093 3.08856 15.4468 2.84761 15.3715 2.47549C15.2962 2.10344 15.5367 1.74076 15.9088 1.66546C19.9328 0.850992 24.0681 2.098 26.9711 5.001C29.8687 7.89876 31.117 12.0273 30.3103 16.045C30.2447 16.3716 29.9578 16.5973 29.6371 16.5973Z" fill="#D9380C"></path>
                    </g>
                  </svg>