<svg width="58" height="58" viewBox="0 0 58 58" fill="none" xmlns="http://www.w3.org/2000/svg">
                    <path d="M13.7523 23.7383H18.1648C19.3697 23.7383 20.3501 22.7605 20.3501 21.5588V17.157C20.3501 15.9553 19.3697 14.9775 18.1648 14.9775H13.7523C12.5492 14.9775 11.5703 15.9553 11.5703 17.157V21.5588C11.5703 22.7605 12.5492 23.7383 13.7523 23.7383ZM13.8359 17.2429H18.0843V21.4729H13.8359V17.2429Z" fill="#D9380C"></path>
                    <path d="M53.0959 31.6593C52.5534 31.6593 52.0089 31.7754 51.512 32.0046C51.1301 30.7937 50.221 30.0151 49.1807 29.6904V5.34518C49.1806 2.39782 46.7782 0 43.8253 0H6.60147C3.64856 0 1.24609 2.39782 1.24609 5.34518V8.36004C1.24609 9.77595 2.39964 10.9279 3.81758 10.9279H4.9215V53.4737C4.9215 54.8896 6.07505 56.0416 7.49299 56.0416H37.4731C39.4605 57.3294 41.6281 58.0001 43.8302 58C45.0546 58 46.2899 57.7928 47.51 57.3695C50.1419 56.4565 52.4933 54.5478 54.1311 51.9946C55.8677 49.2874 56.7745 45.9563 56.7536 42.3679V35.4552C56.7536 32.9631 54.9135 31.6593 53.0959 31.6593ZM7.18713 53.4737V10.9279H17.5665C18.1922 10.9279 18.6993 10.4207 18.6993 9.7952C18.6993 9.16966 18.1922 8.6625 17.5665 8.6625H3.81758C3.65185 8.6625 3.51172 8.52396 3.51172 8.35993V5.34518C3.51172 3.64698 4.89772 2.2654 6.60147 2.2654H39.4506C38.8332 3.13653 38.4701 4.19922 38.4701 5.34518V8.36004C38.4701 8.52407 38.3301 8.66262 38.1642 8.66262H27.7624C27.1367 8.66262 26.6296 9.16978 26.6296 9.79532C26.6296 10.4209 27.1367 10.928 27.7624 10.928H38.1642C39.5822 10.928 40.7357 9.77606 40.7357 8.36016V5.34518C40.7357 3.64698 42.1217 2.2654 43.8253 2.2654C45.529 2.2654 46.915 3.64698 46.915 5.34518V29.6899C46.7622 29.7376 46.6117 29.7939 46.4658 29.8612C45.9493 28.2227 44.468 27.3729 43.0014 27.3729C42.5284 27.3729 42.0542 27.4612 41.611 27.6359V21.2575C41.611 18.7654 39.7719 17.4614 37.9551 17.4614C36.1382 17.4614 34.2991 18.7653 34.2991 21.2575V37.6256C34.2991 38.1411 34.3085 38.6112 34.3166 39.0261C34.3176 39.0708 34.3186 39.1161 34.3193 39.1616L31.6862 36.3387C30.1523 34.6967 27.9344 34.5282 26.2928 35.9293C24.6774 37.308 23.9333 40.0217 25.7358 42.335L33.5984 52.4264C33.9724 52.9063 34.3611 53.3558 34.7622 53.7762H7.49299C7.32714 53.7762 7.18713 53.6377 7.18713 53.4737ZM54.4879 42.3744C54.524 48.5442 51.4935 53.5901 46.7675 55.2294C42.7693 56.6159 38.5142 55.048 35.3857 51.0342L27.5232 40.9429C26.5854 39.7394 26.9472 38.3492 27.7638 37.6524C27.9543 37.4899 28.319 37.2437 28.7798 37.2437C29.1483 37.2437 29.5784 37.4011 30.0301 37.8845L32.7886 40.8419C33.5672 41.6758 34.5354 42.7138 35.6092 42.2786C36.4646 41.9316 36.5442 40.9649 36.5704 40.6472C36.6063 40.2103 36.5955 39.6678 36.5818 38.981C36.5739 38.5768 36.5647 38.1187 36.5647 37.6257V21.2575C36.5647 19.8005 37.723 19.7268 37.9551 19.7268C38.1872 19.7268 39.3454 19.8005 39.3454 21.2575V37.4748C39.3454 38.1003 39.8527 38.6075 40.4782 38.6075C41.1038 38.6075 41.611 38.1003 41.611 37.4748V31.169C41.611 29.7121 42.7693 29.6383 43.0014 29.6383C43.3679 29.6383 43.7177 29.7692 43.9609 29.9976C44.2469 30.2658 44.3919 30.6599 44.3919 31.1691V37.4749C44.3919 38.1004 44.8991 38.6076 45.5247 38.6076C46.1502 38.6076 46.6575 38.1004 46.6575 37.4749V33.3137C46.6575 31.8558 47.815 31.782 48.0471 31.782C48.4137 31.782 48.7636 31.913 49.0072 32.1414C49.2933 32.41 49.4384 32.8043 49.4384 33.3136V37.4748C49.4384 38.1003 49.9457 38.6075 50.5712 38.6075C51.1968 38.6075 51.7041 38.1003 51.7041 37.4748V35.4552C51.7041 33.9984 52.8636 33.9247 53.0961 33.9247C53.4631 33.9247 53.8135 34.0556 54.0569 34.284C54.3429 34.5521 54.4881 34.9462 54.4881 35.4552L54.4879 42.3744Z" fill="#D9380C"></path>
                    <path d="M22.8516 16.1102C22.8516 16.7358 23.3587 17.2429 23.9844 17.2429H33.0505C33.676 17.2429 34.1833 16.7358 34.1833 16.1102C34.1833 15.4847 33.676 14.9775 33.0505 14.9775H23.9844C23.3587 14.9775 22.8516 15.4847 22.8516 16.1102Z" fill="#D9380C"></path>
                    <path d="M31.126 21.4736H23.9844C23.3587 21.4736 22.8516 21.9808 22.8516 22.6063C22.8516 23.2319 23.3587 23.739 23.9844 23.739H31.126C31.7515 23.739 32.2588 23.2319 32.2588 22.6063C32.2588 21.9808 31.7515 21.4736 31.126 21.4736Z" fill="#D9380C"></path>
                    <path d="M12.7031 30.2371H30.0053C30.6308 30.2371 31.1381 29.7299 31.1381 29.1044C31.1381 28.4788 30.6308 27.9717 30.0053 27.9717H12.7031C12.0775 27.9717 11.5703 28.4788 11.5703 29.1044C11.5703 29.7299 12.0775 30.2371 12.7031 30.2371Z" fill="#D9380C"></path>
                    <path d="M12.7031 36.7322H22.0365C22.6621 36.7322 23.1693 36.225 23.1693 35.5995C23.1693 34.974 22.6621 34.4668 22.0365 34.4668H12.7031C12.0775 34.4668 11.5703 34.974 11.5703 35.5995C11.5703 36.225 12.0775 36.7322 12.7031 36.7322Z" fill="#D9380C"></path>
                    <path d="M12.7031 43.2312H20.9229C21.5486 43.2312 22.0557 42.7241 22.0557 42.0985C22.0557 41.473 21.5486 40.9658 20.9229 40.9658H12.7031C12.0775 40.9658 11.5703 41.473 11.5703 42.0985C11.5703 42.7241 12.0775 43.2312 12.7031 43.2312Z" fill="#D9380C"></path>
                    <path d="M24.7625 47.4609H12.7031C12.0775 47.4609 11.5703 47.9681 11.5703 48.5936C11.5703 49.2192 12.0775 49.7263 12.7031 49.7263H24.7625C25.3881 49.7263 25.8953 49.2192 25.8953 48.5936C25.8953 47.9681 25.3881 47.4609 24.7625 47.4609Z" fill="#D9380C"></path>
                    <path d="M22.664 10.9275H22.6704C23.2961 10.9275 23.8 10.4203 23.8 9.79481C23.8 9.16927 23.2897 8.66211 22.6641 8.66211C22.0384 8.66211 21.5312 9.16927 21.5312 9.79481C21.5312 10.4203 22.0383 10.9275 22.664 10.9275Z" fill="#D9380C"></path>
                  </svg>