<svg width="58" height="58" viewBox="0 0 58 58" fill="none" xmlns="http://www.w3.org/2000/svg">
                  <path d="M55.6007 12.862C53.3294 11.5502 50.4135 12.3318 49.1017 14.6031L44.8809 21.9154V15.8594C44.8809 15.2341 44.3734 14.7266 43.748 14.7266C43.1216 14.7266 42.6152 15.2341 42.6152 15.8594V25.8281V25.8383L30.1736 47.3878C30.0943 47.5238 30.0455 47.6755 30.0286 47.833L29.1767 55.7344H2.28711V2.26562H42.6152V5.66406C42.6152 6.28937 43.1216 6.79688 43.748 6.79688C44.3734 6.79688 44.8809 6.28937 44.8809 5.66406V1.13281C44.8809 0.5075 44.3734 0 43.748 0H1.1543C0.527852 0 0.0214844 0.5075 0.0214844 1.13281V56.8672C0.0214844 57.4925 0.527852 58 1.1543 58H43.748C44.3734 58 44.8809 57.4925 44.8809 56.8672V40.9455L57.3429 19.3609C58.6536 17.0896 57.8731 14.1737 55.6007 12.862ZM32.0948 49.8052L35.3607 51.6902L31.5952 54.4407L32.0948 49.8052ZM42.6152 55.7344H33.666L38.1021 52.4934C38.229 52.4005 38.3355 52.2816 38.4148 52.1456L42.6152 44.8707V55.7344ZM37.0191 50.0318L32.702 47.5396L49.283 18.8217L53.599 21.3139L37.0191 50.0318ZM55.3798 18.2281L54.7318 19.3518L50.4158 16.8596L51.0638 15.7359C51.7502 14.5464 53.2784 14.1375 54.4679 14.824C55.6584 15.5116 56.0674 17.0386 55.3798 18.2281Z" fill="#D9380C"></path>
                  <path d="M43.748 9.62891C43.449 9.62891 43.1579 9.75012 42.9472 9.96082C42.7364 10.1715 42.6152 10.4638 42.6152 10.7617C42.6152 11.0608 42.7364 11.3519 42.9472 11.5626C43.1579 11.7733 43.4501 11.8945 43.748 11.8945C44.046 11.8945 44.3382 11.7733 44.5489 11.5626C44.7596 11.3519 44.8809 11.0596 44.8809 10.7617C44.8809 10.4638 44.7596 10.1715 44.5489 9.96082C44.3382 9.75012 44.0471 9.62891 43.748 9.62891Z" fill="#D9380C"></path>
                  <path d="M33.8926 12.0078H11.0098C10.3833 12.0078 9.87695 12.5153 9.87695 13.1406C9.87695 13.7659 10.3833 14.2734 11.0098 14.2734H33.8926C34.5179 14.2734 35.0254 13.7659 35.0254 13.1406C35.0254 12.5153 34.5179 12.0078 33.8926 12.0078Z" fill="#D9380C"></path>
                  <path d="M33.8926 18.3516H11.0098C10.3833 18.3516 9.87695 18.8591 9.87695 19.4844C9.87695 20.1097 10.3833 20.6172 11.0098 20.6172H33.8926C34.5179 20.6172 35.0254 20.1097 35.0254 19.4844C35.0254 18.8591 34.5179 18.3516 33.8926 18.3516Z" fill="#D9380C"></path>
                  <path d="M33.8916 24.6953H25.4805C24.854 24.6953 24.3477 25.2028 24.3477 25.8281C24.3477 26.4534 24.854 26.9609 25.4805 26.9609H33.8916C34.5169 26.9609 35.0244 26.4534 35.0244 25.8281C35.0244 25.2028 34.5169 24.6953 33.8916 24.6953Z" fill="#D9380C"></path>
                  <path d="M35.0254 32.1719C35.0254 31.5466 34.5179 31.0391 33.8926 31.0391H11.0098C10.3833 31.0391 9.87695 31.5466 9.87695 32.1719C9.87695 32.7972 10.3833 33.3047 11.0098 33.3047H33.8926C34.5179 33.3047 35.0254 32.7972 35.0254 32.1719Z" fill="#D9380C"></path>
                  <path d="M30.1543 38.5156C30.1543 37.8903 29.6468 37.3828 29.0215 37.3828H21.9414C21.315 37.3828 20.8086 37.8903 20.8086 38.5156C20.8086 39.1409 21.315 39.6484 21.9414 39.6484H29.0215C29.6468 39.6484 30.1543 39.1409 30.1543 38.5156Z" fill="#D9380C"></path>
                  <path d="M11.0098 45.9922H20.9785C21.6038 45.9922 22.1113 45.4847 22.1113 44.8594C22.1113 44.2341 21.6038 43.7266 20.9785 43.7266H11.0098C10.3833 43.7266 9.87695 44.2341 9.87695 44.8594C9.87695 45.4847 10.3833 45.9922 11.0098 45.9922Z" fill="#D9380C"></path>
                  <path d="M11.0098 26.9609H18.5611C19.1875 26.9609 19.6939 26.4534 19.6939 25.8281C19.6939 25.2028 19.1875 24.6953 18.5611 24.6953H11.0098C10.3833 24.6953 9.87695 25.2028 9.87695 25.8281C9.87695 26.4534 10.3833 26.9609 11.0098 26.9609Z" fill="#D9380C"></path>
                  <path d="M11.0098 39.6484H16.8438C17.4691 39.6484 17.9766 39.1409 17.9766 38.5156C17.9766 37.8903 17.4691 37.3828 16.8438 37.3828H11.0098C10.3833 37.3828 9.87695 37.8903 9.87695 38.5156C9.87695 39.1409 10.3833 39.6484 11.0098 39.6484Z" fill="#D9380C"></path>
                  </svg>