<svg width="64" height="64" viewBox="0 0 64 64" fill="none" xmlns="http://www.w3.org/2000/svg">
                  <path fill-rule="evenodd" clip-rule="evenodd" d="M13.7228 4.30614C14.8599 2.85066 16.604 2 18.451 2H39.549C41.396 2 43.1401 2.85066 44.2772 4.30614L55.576 18.7687C55.8508 19.1204 56 19.5538 56 20V37C56 38.1046 55.1046 39 54 39C52.8954 39 52 38.1046 52 37V22H6V49C6 50.1046 6.89543 51 8 51H33C34.1046 51 35 51.8954 35 53C35 54.1046 34.1046 55 33 55H8C4.68629 55 2 52.3137 2 49V20C2 19.5538 2.14923 19.1204 2.42395 18.7687L13.7228 4.30614ZM41.1251 6.76871L49.8995 18H31V6H39.549C40.1647 6 40.746 6.28355 41.1251 6.76871ZM27 6V18H8.10049L16.8749 6.76871C17.254 6.28355 17.8353 6 18.451 6H27Z" fill="#D9380C"></path>
                  <path d="M38.5 62C37.3954 62 36.5 61.1046 36.5 60C36.5 58.8954 37.3954 58 38.5 58H53C55.7614 58 58 55.7614 58 53C58 50.2386 55.7614 48 53 48H44.4065L47.3016 50.4815C48.1402 51.2003 48.2374 52.4629 47.5185 53.3016C46.7997 54.1402 45.5371 54.2374 44.6984 53.5185L37.6984 47.5185C37.2551 47.1385 37 46.5838 37 46C37 45.4161 37.2551 44.8614 37.6984 44.4815L44.6984 38.4815C45.5371 37.7626 46.7997 37.8598 47.5185 38.6984C48.2374 39.5371 48.1402 40.7997 47.3016 41.5185L44.4065 44H53C57.9706 44 62 48.0294 62 53C62 57.9706 57.9706 62 53 62H38.5Z" fill="#D9380C"></path>
              </svg>