<svg width="36" height="20" viewBox="0 0 36 20" xmlns="http://www.w3.org/2000/svg">
                <mask id="path-1-inside-1_2_16591" fill="white">
                  <path d="M35.0625 18.2159H30.8946C31.2155 17.8057 31.4527 17.3283 31.5573 16.7983H32.3324C32.6951 16.7983 32.9886 16.5048 32.9886 16.1421V9.31812C32.9886 9.17584 32.9425 9.03741 32.8579 8.92462L28.7628 3.46442C28.6384 3.29907 28.4436 3.20166 28.2372 3.20166H23.4333V1.12781C23.4333 0.765076 23.1398 0.471558 22.777 0.471558H3.6676C3.30487 0.471558 3.01135 0.765076 3.01135 1.12781V16.1421C3.01135 16.5048 3.30487 16.7983 3.6676 16.7983H5.80779C5.91233 17.3283 6.14953 17.8057 6.47044 18.2159H0.9375C0.574768 18.2159 0.28125 18.5095 0.28125 18.8722C0.28125 19.2349 0.574768 19.5284 0.9375 19.5284H35.0625C35.4252 19.5284 35.7188 19.2349 35.7188 18.8722C35.7188 18.5095 35.4252 18.2159 35.0625 18.2159ZM12.4478 16.7983H24.9172C25.0218 17.3283 25.259 17.8057 25.5799 18.2159H11.7852C12.1061 17.8057 12.3433 17.3283 12.4478 16.7983ZM26.1634 16.1421C26.1634 14.9988 27.0939 14.0682 28.2372 14.0682C29.3806 14.0682 30.3111 14.9988 30.3111 16.1421C30.3111 17.2854 29.3806 18.2159 28.2372 18.2159C27.0939 18.2159 26.1634 17.2854 26.1634 16.1421ZM27.9091 4.51416L31.6761 9.53729V15.4858H31.5595C31.5587 15.4818 31.5569 15.4781 31.5561 15.474C31.5468 15.4281 31.5285 15.3859 31.5175 15.3407C31.4782 15.1804 31.4329 15.0227 31.3717 14.8721C31.3431 14.8017 31.3055 14.7371 31.2723 14.6691C31.2145 14.5505 31.1552 14.4336 31.0844 14.3231C31.0399 14.2538 30.9899 14.1899 30.9408 14.1242C30.8662 14.0245 30.7889 13.9283 30.7041 13.8375C30.647 13.7764 30.5877 13.719 30.5262 13.6622C30.4356 13.5785 30.3408 13.5008 30.2415 13.4273C30.1745 13.3777 30.108 13.3295 30.0374 13.2848C29.9299 13.2168 29.8175 13.1585 29.7024 13.1028C29.6303 13.0678 29.5606 13.0308 29.4858 13.0009C29.3555 12.949 29.2194 12.9109 29.0817 12.8753C29.0146 12.8578 28.9505 12.8342 28.882 12.8209C28.6728 12.7803 28.4581 12.7557 28.2372 12.7557C28.0164 12.7557 27.8017 12.7803 27.5925 12.8209C27.524 12.8342 27.4599 12.8578 27.3928 12.8753C27.2551 12.9109 27.119 12.949 26.9887 13.0009C26.9139 13.0308 26.8442 13.0678 26.7721 13.1028C26.657 13.1585 26.5445 13.2168 26.4371 13.2848C26.3665 13.3295 26.3 13.3777 26.233 13.4273C26.1337 13.5008 26.0389 13.5785 25.9483 13.6622C25.8868 13.719 25.8275 13.7764 25.7704 13.8375C25.6855 13.9283 25.6083 14.0245 25.5337 14.1242C25.4846 14.1899 25.4346 14.2538 25.3901 14.3231C25.3193 14.4336 25.26 14.5505 25.2022 14.6691C25.169 14.7371 25.1314 14.8017 25.1028 14.8721C25.0416 15.0227 24.9963 15.1804 24.957 15.3407C24.946 15.3859 24.9277 15.4281 24.9184 15.474C24.9176 15.4781 24.9158 15.4818 24.915 15.4858H23.4333V4.51416H27.9091ZM4.32385 1.78406H22.1208V15.4858H12.4501C12.4493 15.4818 12.4474 15.4781 12.4466 15.474C12.4373 15.4281 12.4191 15.3859 12.408 15.3407C12.3688 15.1804 12.3234 15.0227 12.2623 14.8721C12.2336 14.8017 12.196 14.7371 12.1629 14.6691C12.105 14.5505 12.0458 14.4336 11.9749 14.3231C11.9305 14.2538 11.8805 14.1899 11.8313 14.1242C11.7567 14.0245 11.6795 13.9283 11.5947 13.8375C11.5376 13.7764 11.4783 13.719 11.4168 13.6622C11.3261 13.5785 11.2314 13.5008 11.132 13.4273C11.0651 13.3777 10.9986 13.3295 10.9279 13.2848C10.8205 13.2168 10.708 13.1585 10.593 13.1028C10.5209 13.0678 10.4511 13.0308 10.3764 13.0009C10.246 12.949 10.1099 12.9109 9.97223 12.8753C9.90518 12.8578 9.84109 12.8342 9.77252 12.8209C9.56336 12.7803 9.34867 12.7557 9.12781 12.7557C8.90695 12.7557 8.69226 12.7803 8.48309 12.8209C8.41452 12.8342 8.35043 12.8578 8.28338 12.8753C8.14568 12.9109 8.00957 12.949 7.87923 13.0009C7.80449 13.0308 7.73472 13.0678 7.66262 13.1028C7.54758 13.1585 7.43511 13.2168 7.32769 13.2848C7.25703 13.3295 7.19054 13.3777 7.12357 13.4273C7.02423 13.5008 6.92947 13.5785 6.83886 13.6622C6.77734 13.719 6.71806 13.7764 6.66094 13.8375C6.57611 13.9283 6.49888 14.0245 6.4243 14.1242C6.37511 14.1899 6.32513 14.2538 6.28067 14.3231C6.20985 14.4336 6.15057 14.5505 6.09273 14.6691C6.05957 14.7371 6.022 14.8017 5.99332 14.8721C5.93219 15.0227 5.88685 15.1804 5.8476 15.3407C5.83654 15.3859 5.81828 15.4281 5.80899 15.474C5.80819 15.4781 5.80634 15.4818 5.80554 15.4858H4.32385V1.78406ZM7.05396 16.1421C7.05396 14.9988 7.9845 14.0682 9.12781 14.0682C10.2711 14.0682 11.2017 14.9988 11.2017 16.1421C11.2017 17.2854 10.2711 18.2159 9.12781 18.2159C7.9845 18.2159 7.05396 17.2854 7.05396 16.1421Z"></path>
                </mask>
                <path d="M35.0625 18.2159H30.8946C31.2155 17.8057 31.4527 17.3283 31.5573 16.7983H32.3324C32.6951 16.7983 32.9886 16.5048 32.9886 16.1421V9.31812C32.9886 9.17584 32.9425 9.03741 32.8579 8.92462L28.7628 3.46442C28.6384 3.29907 28.4436 3.20166 28.2372 3.20166H23.4333V1.12781C23.4333 0.765076 23.1398 0.471558 22.777 0.471558H3.6676C3.30487 0.471558 3.01135 0.765076 3.01135 1.12781V16.1421C3.01135 16.5048 3.30487 16.7983 3.6676 16.7983H5.80779C5.91233 17.3283 6.14953 17.8057 6.47044 18.2159H0.9375C0.574768 18.2159 0.28125 18.5095 0.28125 18.8722C0.28125 19.2349 0.574768 19.5284 0.9375 19.5284H35.0625C35.4252 19.5284 35.7188 19.2349 35.7188 18.8722C35.7188 18.5095 35.4252 18.2159 35.0625 18.2159ZM12.4478 16.7983H24.9172C25.0218 17.3283 25.259 17.8057 25.5799 18.2159H11.7852C12.1061 17.8057 12.3433 17.3283 12.4478 16.7983ZM26.1634 16.1421C26.1634 14.9988 27.0939 14.0682 28.2372 14.0682C29.3806 14.0682 30.3111 14.9988 30.3111 16.1421C30.3111 17.2854 29.3806 18.2159 28.2372 18.2159C27.0939 18.2159 26.1634 17.2854 26.1634 16.1421ZM27.9091 4.51416L31.6761 9.53729V15.4858H31.5595C31.5587 15.4818 31.5569 15.4781 31.5561 15.474C31.5468 15.4281 31.5285 15.3859 31.5175 15.3407C31.4782 15.1804 31.4329 15.0227 31.3717 14.8721C31.3431 14.8017 31.3055 14.7371 31.2723 14.6691C31.2145 14.5505 31.1552 14.4336 31.0844 14.3231C31.0399 14.2538 30.9899 14.1899 30.9408 14.1242C30.8662 14.0245 30.7889 13.9283 30.7041 13.8375C30.647 13.7764 30.5877 13.719 30.5262 13.6622C30.4356 13.5785 30.3408 13.5008 30.2415 13.4273C30.1745 13.3777 30.108 13.3295 30.0374 13.2848C29.9299 13.2168 29.8175 13.1585 29.7024 13.1028C29.6303 13.0678 29.5606 13.0308 29.4858 13.0009C29.3555 12.949 29.2194 12.9109 29.0817 12.8753C29.0146 12.8578 28.9505 12.8342 28.882 12.8209C28.6728 12.7803 28.4581 12.7557 28.2372 12.7557C28.0164 12.7557 27.8017 12.7803 27.5925 12.8209C27.524 12.8342 27.4599 12.8578 27.3928 12.8753C27.2551 12.9109 27.119 12.949 26.9887 13.0009C26.9139 13.0308 26.8442 13.0678 26.7721 13.1028C26.657 13.1585 26.5445 13.2168 26.4371 13.2848C26.3665 13.3295 26.3 13.3777 26.233 13.4273C26.1337 13.5008 26.0389 13.5785 25.9483 13.6622C25.8868 13.719 25.8275 13.7764 25.7704 13.8375C25.6855 13.9283 25.6083 14.0245 25.5337 14.1242C25.4846 14.1899 25.4346 14.2538 25.3901 14.3231C25.3193 14.4336 25.26 14.5505 25.2022 14.6691C25.169 14.7371 25.1314 14.8017 25.1028 14.8721C25.0416 15.0227 24.9963 15.1804 24.957 15.3407C24.946 15.3859 24.9277 15.4281 24.9184 15.474C24.9176 15.4781 24.9158 15.4818 24.915 15.4858H23.4333V4.51416H27.9091ZM4.32385 1.78406H22.1208V15.4858H12.4501C12.4493 15.4818 12.4474 15.4781 12.4466 15.474C12.4373 15.4281 12.4191 15.3859 12.408 15.3407C12.3688 15.1804 12.3234 15.0227 12.2623 14.8721C12.2336 14.8017 12.196 14.7371 12.1629 14.6691C12.105 14.5505 12.0458 14.4336 11.9749 14.3231C11.9305 14.2538 11.8805 14.1899 11.8313 14.1242C11.7567 14.0245 11.6795 13.9283 11.5947 13.8375C11.5376 13.7764 11.4783 13.719 11.4168 13.6622C11.3261 13.5785 11.2314 13.5008 11.132 13.4273C11.0651 13.3777 10.9986 13.3295 10.9279 13.2848C10.8205 13.2168 10.708 13.1585 10.593 13.1028C10.5209 13.0678 10.4511 13.0308 10.3764 13.0009C10.246 12.949 10.1099 12.9109 9.97223 12.8753C9.90518 12.8578 9.84109 12.8342 9.77252 12.8209C9.56336 12.7803 9.34867 12.7557 9.12781 12.7557C8.90695 12.7557 8.69226 12.7803 8.48309 12.8209C8.41452 12.8342 8.35043 12.8578 8.28338 12.8753C8.14568 12.9109 8.00957 12.949 7.87923 13.0009C7.80449 13.0308 7.73472 13.0678 7.66262 13.1028C7.54758 13.1585 7.43511 13.2168 7.32769 13.2848C7.25703 13.3295 7.19054 13.3777 7.12357 13.4273C7.02423 13.5008 6.92947 13.5785 6.83886 13.6622C6.77734 13.719 6.71806 13.7764 6.66094 13.8375C6.57611 13.9283 6.49888 14.0245 6.4243 14.1242C6.37511 14.1899 6.32513 14.2538 6.28067 14.3231C6.20985 14.4336 6.15057 14.5505 6.09273 14.6691C6.05957 14.7371 6.022 14.8017 5.99332 14.8721C5.93219 15.0227 5.88685 15.1804 5.8476 15.3407C5.83654 15.3859 5.81828 15.4281 5.80899 15.474C5.80819 15.4781 5.80634 15.4818 5.80554 15.4858H4.32385V1.78406ZM7.05396 16.1421C7.05396 14.9988 7.9845 14.0682 9.12781 14.0682C10.2711 14.0682 11.2017 14.9988 11.2017 16.1421C11.2017 17.2854 10.2711 18.2159 9.12781 18.2159C7.9845 18.2159 7.05396 17.2854 7.05396 16.1421Z" fill="#fff" stroke="#fff" stroke-width="2" mask="url(#path-1-inside-1_2_16591)"></path>
              </svg>